<svg width="2em" height="1em" viewBox="0 0 513 342" fill="none" xmlns="http://www.w3.org/2000/svg">
<path d="M0 0H513V342H0V0Z" fill="#EF3340"/>
<path d="M0 0H513V114H0V0Z" fill="#00B5E2"/>
<path d="M0 228H513V342H0V228Z" fill="#509E2F"/>
<path d="M265.6 212.6C242.6 212.6 224 194 224 171C224 148 242.6 129.4 265.6 129.4C272.8 129.4 279.5 131.2 285.4 134.4C276.2 125.4 263.5 119.8 249.6 119.8C221.3 119.8 198.4 142.7 198.4 171C198.4 199.3 221.3 222.2 249.6 222.2C263.5 222.2 276.2 216.6 285.4 207.6C279.5 210.8 272.8 212.6 265.6 212.6Z" fill="white"/>
<path d="M297.601 142.2L303.101 157.7L318.001 150.6L310.901 165.5L326.401 171L310.901 176.5L318.001 191.4L303.101 184.3L297.601 199.8L292.101 184.3L277.201 191.4L284.301 176.5L268.801 171L284.301 165.5L277.201 150.6L292.101 157.7L297.601 142.2Z" fill="white"/>
</svg>
