<svg width="1em" height="1em" viewBox="0 0 45 33" fill="none" xmlns="http://www.w3.org/2000/svg">
<path d="M43.1601 1.28052H1.50658V31.3862H43.1601V1.28052Z" stroke="white" stroke-width="1.99527" stroke-miterlimit="22.9256"/>
<path d="M9.20516 3.69955H4.11986V7.12507H9.20516V3.69955Z" fill="white"/>
<path d="M9.20516 8.07855H4.11986V11.5041H9.20516V8.07855Z" fill="white"/>
<path d="M9.20516 12.4399H4.11986V15.8654H9.20516V12.4399Z" fill="white"/>
<path d="M9.20516 16.8013H4.11986V20.2268H9.20516V16.8013Z" fill="white"/>
<path d="M9.20516 21.1803H4.11986V24.6058H9.20516V21.1803Z" fill="white"/>
<path d="M9.20516 25.5416H4.11986V28.9671H9.20516V25.5416Z" fill="white"/>
<path d="M40.7587 3.69955H35.6734V7.12507H40.7587V3.69955Z" fill="white"/>
<path d="M40.7587 8.07855H35.6734V11.5041H40.7587V8.07855Z" fill="white"/>
<path d="M40.7587 12.4399H35.6734V15.8654H40.7587V12.4399Z" fill="white"/>
<path d="M40.7587 16.8013H35.6734V20.2268H40.7587V16.8013Z" fill="white"/>
<path d="M40.7587 21.1803H35.6734V24.6058H40.7587V21.1803Z" fill="white"/>
<path d="M40.7587 25.5416H35.6734V28.9671H40.7587V25.5416Z" fill="white"/>
<path fill-rule="evenodd" clip-rule="evenodd" d="M25.7677 16.3422L22.3422 14.3469L18.899 12.3693V16.3422V20.2974L22.3422 18.3198L25.7677 16.3422Z" fill="white"/>
<path d="M31.8418 3.69955H31.524V7.12507H31.8418V3.69955Z" fill="white"/>
<path d="M31.8418 8.07855H31.524V11.5041H31.8418V8.07855Z" fill="white"/>
<path d="M31.8418 12.4399H31.524V15.8654H31.8418V12.4399Z" fill="white"/>
<path d="M31.8418 16.8013H31.524V20.2268H31.8418V16.8013Z" fill="white"/>
<path d="M31.8418 21.1803H31.524V24.6058H31.8418V21.1803Z" fill="white"/>
<path d="M31.8418 25.5416H31.524V28.9671H31.8418V25.5416Z" fill="white"/>
</svg>
