<svg width="1em" height="1em" viewBox="0 0 37 37" fill="none" xmlns="http://www.w3.org/2000/svg">
<path fill-rule="evenodd" clip-rule="evenodd" d="M0.404045 34.7095C0.734092 34.6124 3.29681 31.9138 3.60744 31.6032L13.14 22.0318C13.14 21.76 12.4022 20.3622 13.3924 18.9255C14.5766 17.1976 16.8676 17.1005 18.1683 18.4207C20.4981 20.7699 18.246 24.4004 15.2756 23.7015C15.0426 23.6432 14.8484 23.5267 14.6155 23.5267L5.08294 33.0399C4.77231 33.3505 2.03486 35.952 1.95721 36.2821L3.9569 35.4861C4.65582 35.2143 5.2965 34.9425 5.9566 34.6901C7.31561 34.1465 8.65522 33.6029 10.0142 33.0787C12.7129 31.9915 15.3921 30.9237 18.1101 29.8365C19.4691 29.2929 20.7505 28.7687 22.1095 28.2445C23.119 27.8368 23.0802 27.8756 23.5656 26.9049L27.3514 19.3526C27.565 18.9255 28.1862 17.7995 28.2833 17.4112L19.3332 8.42226C18.9837 8.51933 12.2857 11.9169 11.781 12.1693C11.1403 12.4993 10.5578 12.7711 9.91716 13.1012C8.94643 13.5865 8.92702 13.5089 8.4999 14.5572L0.42346 34.7678L0.404045 34.7095Z" fill="white"/>
<path fill-rule="evenodd" clip-rule="evenodd" d="M20.4981 6.07309C20.4981 6.90792 20.9834 7.14089 21.4882 7.66508L25.2352 11.4121C26.0895 12.2663 26.866 13.0429 27.7203 13.8971C28.1474 14.3243 28.5163 14.6931 28.9434 15.1203C29.4676 15.6444 29.7394 16.1492 30.5742 16.1492C31.079 16.1492 31.8167 15.2173 32.1274 14.9067L34.9619 12.0722C35.4861 11.548 36.2432 11.0432 36.2432 10.3443C36.2432 9.68419 35.6026 9.25707 35.2531 8.8882L31.5061 5.1412C30.6519 4.28696 29.8753 3.51038 29.021 2.65614C28.5939 2.22902 28.225 1.86014 27.7979 1.43302C27.2737 0.908831 27.0019 0.404053 26.1671 0.404053C25.6623 0.404053 24.9246 1.33595 24.6139 1.64658L21.7794 4.4811C21.4494 4.81115 20.4981 5.56831 20.4981 6.07309Z" fill="white"/>
<path fill-rule="evenodd" clip-rule="evenodd" d="M14.9649 20.4981C14.9649 22.1871 17.0617 21.9736 17.0617 20.634C17.0617 19.1973 14.9649 19.3526 14.9649 20.4981Z" fill="white"/>
</svg>
