<svg width="2em" height="1em" viewBox="0 0 53 33" fill="none" xmlns="http://www.w3.org/2000/svg">
<path fill-rule="evenodd" clip-rule="evenodd" d="M26.3415 5.9812H22.2498L17.5524 1.28386H7.65037L1.20176 25.2943L11.7585 31.3829L20.7113 19.4513H26.3415H31.9554L40.9082 31.3829L51.4649 25.2943L45.0163 1.28386H35.1143L30.4169 5.9812H26.3415Z" stroke="white" stroke-width="1.99678" stroke-miterlimit="22.9256"/>
<path d="M14.279 9.76199H11.9222V17.3072H14.279V9.76199Z" fill="white"/>
<path d="M9.32947 12.3596L9.32947 14.7145L16.8764 14.7145L16.8764 12.3596L9.32947 12.3596Z" fill="white"/>
<path d="M38.8951 11.857C39.4736 11.857 39.9425 11.388 39.9425 10.8095C39.9425 10.231 39.4736 9.76199 38.8951 9.76199C38.3165 9.76199 37.8476 10.231 37.8476 10.8095C37.8476 11.388 38.3165 11.857 38.8951 11.857Z" fill="white"/>
<path d="M38.8951 17.3072C39.4736 17.3072 39.9425 16.8382 39.9425 16.2597C39.9425 15.6812 39.4736 15.2122 38.8951 15.2122C38.3165 15.2122 37.8476 15.6812 37.8476 16.2597C37.8476 16.8382 38.3165 17.3072 38.8951 17.3072Z" fill="white"/>
<path d="M37.2051 13.5344C37.2051 12.9577 36.7375 12.4901 36.1608 12.4901C35.584 12.4901 35.1165 12.9577 35.1165 13.5344C35.1165 14.1112 35.584 14.5788 36.1608 14.5788C36.7375 14.5788 37.2051 14.1112 37.2051 13.5344Z" fill="white"/>
<path d="M42.6594 13.5344C42.6594 12.9577 42.1919 12.4901 41.6151 12.4901C41.0383 12.4901 40.5708 12.9577 40.5708 13.5344C40.5708 14.1112 41.0383 14.5788 41.6151 14.5788C42.1919 14.5788 42.6594 14.1112 42.6594 13.5344Z" fill="white"/>
</svg>
