<svg width="1em" height="1em" viewBox="0 0 24 24" fill="none" xmlns="http://www.w3.org/2000/svg">
<path d="M8.625 12.75C7.95749 12.75 7.30497 12.5521 6.74995 12.1812C6.19493 11.8104 5.76235 11.2833 5.50691 10.6666C5.25146 10.0499 5.18462 9.37126 5.31485 8.71657C5.44507 8.06189 5.76651 7.46052 6.23851 6.98852C6.71052 6.51651 7.31188 6.19508 7.96657 6.06485C8.62126 5.93463 9.29986 6.00146 9.91656 6.25691C10.5333 6.51235 11.0604 6.94494 11.4312 7.49995C11.8021 8.05497 12 8.70749 12 9.375C11.999 10.2698 11.6431 11.1277 11.0104 11.7604C10.3777 12.3931 9.5198 12.749 8.625 12.75ZM13.5 21H3.75C3.55109 21 3.36032 20.921 3.21967 20.7803C3.07902 20.6397 3 20.4489 3 20.25V19.875C3 18.3832 3.59263 16.9524 4.64752 15.8975C5.70242 14.8426 7.13316 14.25 8.625 14.25C10.1168 14.25 11.5476 14.8426 12.6025 15.8975C13.6574 16.9524 14.25 18.3832 14.25 19.875V20.25C14.25 20.4489 14.171 20.6397 14.0303 20.7803C13.8897 20.921 13.6989 21 13.5 21ZM16.125 9.75C15.4575 9.75 14.805 9.55206 14.25 9.18121C13.6949 8.81036 13.2624 8.28326 13.0069 7.66656C12.7515 7.04986 12.6846 6.37126 12.8148 5.71657C12.9451 5.06189 13.2665 4.46052 13.7385 3.98852C14.2105 3.51651 14.8119 3.19508 15.4666 3.06485C16.1213 2.93463 16.7999 3.00146 17.4166 3.25691C18.0333 3.51235 18.5604 3.94494 18.9312 4.49995C19.3021 5.05497 19.5 5.70749 19.5 6.375C19.499 7.2698 19.1431 8.12767 18.5104 8.76039C17.8777 9.39311 17.0198 9.74901 16.125 9.75ZM15.0592 11.2658C14.3607 11.3595 13.6891 11.5964 13.0864 11.9618C12.4837 12.3271 11.9629 12.813 11.5568 13.389C13.2374 14.1522 14.558 15.5357 15.2423 17.25H20.25C20.4489 17.25 20.6397 17.171 20.7803 17.0303C20.921 16.8897 21 16.6989 21 16.5V16.4715C20.9992 15.7239 20.839 14.9851 20.5299 14.3043C20.2209 13.6236 19.7702 13.0166 19.208 12.5239C18.6457 12.0312 17.9848 11.6641 17.2694 11.4472C16.5539 11.2302 15.8005 11.1684 15.0592 11.2658Z" fill="currentColor"/>
</svg>
