<svg width="1em" height="1em" viewBox="0 0 56 56" fill="none" xmlns="http://www.w3.org/2000/svg">
<g >
<path d="M28 4.32187C34.4125 4.32187 35.1719 4.35 37.6938 4.4625C40.0375 4.56562 41.3031 4.95938 42.1469 5.2875C43.2625 5.71875 44.0688 6.24375 44.9031 7.07812C45.7469 7.92188 46.2625 8.71875 46.6938 9.83438C47.0219 10.6781 47.4156 11.9531 47.5188 14.2875C47.6313 16.8187 47.6594 17.5781 47.6594 23.9813C47.6594 30.3938 47.6313 31.1531 47.5188 33.675C47.4156 36.0188 47.0219 37.2844 46.6938 38.1281C46.2625 39.2438 45.7375 40.05 44.9031 40.8844C44.0594 41.7281 43.2625 42.2438 42.1469 42.675C41.3031 43.0031 40.0281 43.3969 37.6938 43.5C35.1625 43.6125 34.4031 43.6406 28 43.6406C21.5875 43.6406 20.8281 43.6125 18.3063 43.5C15.9625 43.3969 14.6969 43.0031 13.8531 42.675C12.7375 42.2438 11.9313 41.7188 11.0969 40.8844C10.2531 40.0406 9.7375 39.2438 9.30625 38.1281C8.97813 37.2844 8.58438 36.0094 8.48125 33.675C8.36875 31.1438 8.34063 30.3844 8.34063 23.9813C8.34063 17.5688 8.36875 16.8094 8.48125 14.2875C8.58438 11.9437 8.97813 10.6781 9.30625 9.83438C9.7375 8.71875 10.2625 7.9125 11.0969 7.07812C11.9406 6.23438 12.7375 5.71875 13.8531 5.2875C14.6969 4.95938 15.9719 4.56562 18.3063 4.4625C20.8281 4.35 21.5875 4.32187 28 4.32187ZM28 0C21.4844 0 20.6688 0.028125 18.1094 0.140625C15.5594 0.253125 13.8063 0.665625 12.2875 1.25625C10.7031 1.875 9.3625 2.69062 8.03125 4.03125C6.69063 5.3625 5.875 6.70313 5.25625 8.27813C4.66562 9.80625 4.25313 11.55 4.14063 14.1C4.02813 16.6687 4 17.4844 4 24C4 30.5156 4.02813 31.3312 4.14063 33.8906C4.25313 36.4406 4.66562 38.1938 5.25625 39.7125C5.875 41.2969 6.69063 42.6375 8.03125 43.9688C9.3625 45.3 10.7031 46.125 12.2781 46.7344C13.8063 47.325 15.55 47.7375 18.1 47.85C20.6594 47.9625 21.475 47.9906 27.9906 47.9906C34.5063 47.9906 35.3219 47.9625 37.8813 47.85C40.4313 47.7375 42.1844 47.325 43.7031 46.7344C45.2781 46.125 46.6188 45.3 47.95 43.9688C49.2812 42.6375 50.1063 41.2969 50.7156 39.7219C51.3063 38.1938 51.7188 36.45 51.8313 33.9C51.9438 31.3406 51.9719 30.525 51.9719 24.0094C51.9719 17.4938 51.9438 16.6781 51.8313 14.1188C51.7188 11.5688 51.3063 9.81563 50.7156 8.29688C50.125 6.70312 49.3094 5.3625 47.9688 4.03125C46.6375 2.7 45.2969 1.875 43.7219 1.26562C42.1938 0.675 40.45 0.2625 37.9 0.15C35.3313 0.028125 34.5156 0 28 0Z" fill="currentColor"/>
<path d="M28 11.6719C21.1938 11.6719 15.6719 17.1938 15.6719 24C15.6719 30.8062 21.1938 36.3281 28 36.3281C34.8062 36.3281 40.3281 30.8062 40.3281 24C40.3281 17.1938 34.8062 11.6719 28 11.6719ZM28 31.9969C23.5844 31.9969 20.0031 28.4156 20.0031 24C20.0031 19.5844 23.5844 16.0031 28 16.0031C32.4156 16.0031 35.9969 19.5844 35.9969 24C35.9969 28.4156 32.4156 31.9969 28 31.9969Z" fill="currentColor"/>
<path d="M43.6937 11.1843C43.6937 12.778 42.4 14.0624 40.8156 14.0624C39.2219 14.0624 37.9375 12.7687 37.9375 11.1843C37.9375 9.59053 39.2313 8.30615 40.8156 8.30615C42.4 8.30615 43.6937 9.5999 43.6937 11.1843Z" fill="currentColor"/>
</g>
</svg>
